# xmcd
#
# Track frame offsets: 
#        150
#        14282
#        30174
#        42508
#        54820
#        66657
#        79393
#        92202
#        103093
#        118310
#        131284
#        145352
#        161208
#        173671
#        191064
#        204254
#        219322
#        238015
#        256332
#        268969
#        281957
#
# Disc length: 3915 seconds
#
# Revision: 0
# Processed by: cddbd v1.5.2PL0 Copyright (c) Steve Scherf et al.
# Submitted via: ExactAudioCopy v1.2
#
DISCID=3e0f4915
DTITLE=Sonny Terry - His Best 21 Songs
DYEAR=2015
DGENRE=Blues
TTITLE0=Mountain Blues
TTITLE1=The New John Henry
TTITLE2=New Love Blues
TTITLE3=Harmonica Blues
TTITLE4=Harmonica And Washboard Breakdown
TTITLE5=Harmonica Stomp
TTITLE6=Forty-Four Whistle Blues
TTITLE7=Tough It Up Blues
TTITLE8=The Red Cross Store
TTITLE9=Shake Down
TTITLE10=Sweet Woman
TTITLE11=Chain Gang Blues
TTITLE12=Stackolee
TTITLE13=Rock Me Mama
TTITLE14=Chain Gang Special
TTITLE15=It Takes A Chain Gang Man
TTITLE16=Betty And Dupree
TTITLE17=Red River
TTITLE18=Worried And Lonesome Blues
TTITLE19=She's A Sweet Woman
TTITLE20=Southbound Express
EXTD=
EXTT0=
EXTT1=
EXTT2=
EXTT3=
EXTT4=
EXTT5=
EXTT6=
EXTT7=
EXTT8=
EXTT9=
EXTT10=
EXTT11=
EXTT12=
EXTT13=
EXTT14=
EXTT15=
EXTT16=
EXTT17=
EXTT18=
EXTT19=
EXTT20=
PLAYORDER=
